<svg width="70" height="54" viewBox="0 0 70 54" fill="none" xmlns="http://www.w3.org/2000/svg">
<path d="M16.6569 24.8278L18.0878 23.0944C30.3744 21.7745 33.8816 30.8528 33.8816 30.8528C27.9757 22.3889 16.6569 24.8278 16.6569 24.8278Z" fill="url(#paint0_linear_866_6112)"/>
<path d="M8.36103 34.8756C8.36103 34.8756 22.1357 28.3715 33.8777 32.915C33.6982 32.7606 25.4507 26.0077 10.6478 32.1055L8.36103 34.8756Z" fill="url(#paint1_linear_866_6112)"/>
<path d="M33.8785 32.2902C25.5206 27.206 15.13 29.6137 11.9365 30.5432L13.7969 28.2891C27.6446 24.5934 33.7379 32.1143 33.8785 32.2902Z" fill="url(#paint2_linear_866_6112)"/>
<path d="M33.8784 31.5311C27.119 25.6053 17.5232 26.842 14.5179 27.418L16.1432 25.4494C29.2882 23.0992 33.776 31.3415 33.8784 31.5319V31.5311Z" fill="url(#paint3_linear_866_6112)"/>
<path d="M16.6569 24.8278L18.0878 23.0944C30.3744 21.7745 33.8816 30.8528 33.8816 30.8528C27.9757 22.3889 16.6569 24.8278 16.6569 24.8278Z" fill="#2B8679"/>
<path d="M8.36103 34.8756C8.36103 34.8756 22.1357 28.3715 33.8777 32.915C33.6982 32.7606 25.4507 26.0077 10.6478 32.1055L8.36103 34.8756Z" fill="#2B8679"/>
<path d="M33.8785 32.2902C25.5206 27.206 15.13 29.6137 11.9365 30.5432L13.7969 28.2891C27.6446 24.5934 33.7379 32.1143 33.8785 32.2902Z" fill="#2B8679"/>
<path d="M33.8784 31.5311C27.119 25.6053 17.5232 26.842 14.5179 27.418L16.1432 25.4494C29.2882 23.0992 33.776 31.3415 33.8784 31.5319V31.5311Z" fill="#2B8679"/>
<path d="M53.3438 24.8278L51.913 23.0944C39.6264 21.7745 36.1192 30.8528 36.1192 30.8528C42.0251 22.3889 53.3438 24.8278 53.3438 24.8278Z" fill="url(#paint4_linear_866_6112)"/>
<path d="M61.6398 34.8756C61.6398 34.8756 47.8651 28.3715 36.1231 32.915C36.3026 32.7606 44.5501 26.0077 59.353 32.1055L61.6398 34.8756Z" fill="url(#paint5_linear_866_6112)"/>
<path d="M36.1223 32.2902C44.4802 27.206 54.8707 29.6137 58.0643 30.5432L56.2039 28.2891C42.3562 24.5934 36.2629 32.1143 36.1223 32.2902Z" fill="url(#paint6_linear_866_6112)"/>
<path d="M36.1223 31.5311C42.8818 25.6053 52.4776 26.842 55.4829 27.418L53.8576 25.4494C40.7126 23.0992 36.2248 31.3415 36.1223 31.5319V31.5311Z" fill="url(#paint7_linear_866_6112)"/>
<path d="M53.3438 24.8278L51.913 23.0944C39.6264 21.7745 36.1192 30.8528 36.1192 30.8528C42.0251 22.3889 53.3438 24.8278 53.3438 24.8278Z" fill="#2B8679"/>
<path d="M61.6398 34.8756C61.6398 34.8756 47.8651 28.3715 36.1231 32.915C36.3026 32.7606 44.5501 26.0077 59.353 32.1055L61.6398 34.8756Z" fill="#2B8679"/>
<path d="M36.1223 32.2902C44.4802 27.206 54.8707 29.6137 58.0643 30.5432L56.2039 28.2891C42.3562 24.5934 36.2629 32.1143 36.1223 32.2902Z" fill="#2B8679"/>
<path d="M36.1223 31.5311C42.8818 25.6053 52.4776 26.842 55.4829 27.418L53.8576 25.4494C40.7126 23.0992 36.2248 31.3415 36.1223 31.5319V31.5311Z" fill="#2B8679"/>
<path d="M63.1786 36.7386L63.1738 36.7738C53.8941 35.6379 44.4476 35.0364 35.102 34.9812H34.8956C25.55 35.0364 16.1035 35.6379 6.82381 36.7738L6.81984 36.745V36.7426L7.87271 35.4539C16.8126 34.4084 25.897 33.8493 34.8869 33.7965H35.1108C44.103 33.8493 53.1898 34.4084 62.1321 35.4563L63.1786 36.7378V36.7386Z" fill="url(#paint8_linear_866_6112)"/>
<path d="M63.1786 36.7386L63.1738 36.7738C53.8941 35.6379 44.4476 35.0364 35.102 34.9812H34.8956C25.55 35.0364 16.1035 35.6379 6.82381 36.7738L6.81984 36.745V36.7426L7.87271 35.4539C16.8126 34.4084 25.897 33.8493 34.8869 33.7965H35.1108C44.103 33.8493 53.1898 34.4084 62.1321 35.4563L63.1786 36.7378V36.7386Z" fill="#2B8679"/>
<path d="M49.3483 7.44883L48.3129 8.98467C48.166 8.97827 48.0191 8.97587 47.8723 8.97587C45.3782 8.97587 43.0303 9.95017 41.2692 11.7212C40.576 12.4155 40.0075 13.1994 39.5716 14.0465L38.5671 12.5395C40.5022 9.42302 43.9466 7.35044 47.873 7.35044C48.3733 7.35044 48.8672 7.38563 49.3491 7.44963L49.3483 7.44883Z" fill="#014202"/>
<path d="M49.3483 7.44883L48.3129 8.98467C48.166 8.97827 48.0191 8.97587 47.8723 8.97587C45.3782 8.97587 43.0303 9.95017 41.2692 11.7212C40.576 12.4155 40.0075 13.1994 39.5716 14.0465L38.5671 12.5395C40.5022 9.42302 43.9466 7.35044 47.873 7.35044C48.3733 7.35044 48.8672 7.38563 49.3491 7.44963L49.3483 7.44883Z" fill="#2B8679"/>
<path d="M51.7161 3.93879L50.7045 5.43944C50.2281 5.38664 49.7477 5.36024 49.2634 5.36024C47.484 5.36024 45.7578 5.71141 44.1451 6.39694C42.5873 7.05767 41.1771 8.01037 39.9638 9.22784C39.2111 9.98376 38.56 10.8149 38.0177 11.714L37.0371 10.2421C39.6938 6.31454 44.1801 3.73561 49.2634 3.73561C50.0995 3.73561 50.9173 3.80601 51.7161 3.93879Z" fill="#014202"/>
<path d="M51.7161 3.93879L50.7045 5.43944C50.2281 5.38664 49.7477 5.36024 49.2634 5.36024C47.484 5.36024 45.7578 5.71141 44.1451 6.39694C42.5873 7.05767 41.1771 8.01037 39.9638 9.22784C39.2111 9.98376 38.56 10.8149 38.0177 11.714L37.0371 10.2421C39.6938 6.31454 44.1801 3.73561 49.2634 3.73561C50.0995 3.73561 50.9173 3.80601 51.7161 3.93879Z" fill="#2B8679"/>
<path d="M40.3172 5.27626C40.3172 5.27626 40.3092 5.28106 40.3053 5.28506L40.2886 5.27626C40.2767 5.26746 40.2568 5.25626 40.2568 5.25626L40.2655 5.24266L40.3172 5.27626Z" fill="#2B8679"/>
<path d="M22.1262 7.22805C21.6243 7.22805 21.1328 7.26325 20.6469 7.32644L21.6847 8.86388C21.8292 8.85668 21.9785 8.85508 22.1262 8.85508C24.6202 8.85508 26.9649 9.82858 28.7292 11.5996C29.42 12.2939 29.9885 13.0778 30.4253 13.9234L31.4297 12.4163C29.4955 9.30064 26.051 7.22725 22.1262 7.22725V7.22805Z" fill="#2B8679"/>
<path d="M32.959 10.1206L31.9784 11.5924C31.4368 10.6949 30.7849 9.86218 30.0322 9.10626C28.819 7.88878 27.4088 6.93608 25.8509 6.27535C24.2383 5.59062 22.5121 5.23866 20.7327 5.23866C20.2475 5.23866 19.7671 5.26505 19.2915 5.31785L18.2823 3.8172C19.0787 3.68442 19.8973 3.61402 20.7327 3.61402C25.8176 3.61402 30.3022 6.19536 32.959 10.1206Z" fill="#2B8679"/>
<path d="M34.4811 7.83759L33.514 9.28944C33.1543 8.74549 32.7636 8.21755 32.3404 7.716V7.7136C32.022 7.33364 31.6885 6.96648 31.336 6.61291C29.7781 5.04828 27.9638 3.8212 25.9438 2.96209C23.8531 2.07578 21.6331 1.62463 19.3423 1.62463C18.5237 1.62463 17.717 1.68223 16.9182 1.79661L15.9201 0.315967C17.0301 0.107989 18.1735 0 19.3423 0C25.5857 0 31.1121 3.09408 34.4819 7.83679L34.4811 7.83759Z" fill="#2B8679"/>
<path d="M40.3593 5.30026L40.3529 5.31546L40.3045 5.28666V5.28506L40.2878 5.27626C40.2759 5.26746 40.256 5.25626 40.256 5.25626L40.2648 5.24266L40.3164 5.27626L40.3585 5.30026H40.3593Z" fill="#7B2C84"/>
<path d="M49.3483 7.44883L48.3129 8.98467C48.166 8.97827 48.0191 8.97587 47.8723 8.97587C45.3782 8.97587 43.0303 9.95017 41.2692 11.7212C40.576 12.4155 40.0075 13.1994 39.5716 14.0465L38.5671 12.5395C40.5022 9.42302 43.9466 7.35044 47.873 7.35044C48.3733 7.35044 48.8672 7.38563 49.3491 7.44963L49.3483 7.44883Z" fill="#2B8679"/>
<path d="M49.3483 7.44883L48.3129 8.98467C48.166 8.97827 48.0191 8.97587 47.8723 8.97587C45.3782 8.97587 43.0303 9.95017 41.2692 11.7212C40.576 12.4155 40.0075 13.1994 39.5716 14.0465L38.5671 12.5395C40.5022 9.42302 43.9466 7.35044 47.873 7.35044C48.3733 7.35044 48.8672 7.38563 49.3491 7.44963L49.3483 7.44883Z" fill="#2B8679"/>
<path d="M49.3483 7.44883L48.3129 8.98467C48.166 8.97827 48.0191 8.97587 47.8723 8.97587C45.3782 8.97587 43.0303 9.95017 41.2692 11.7212C40.576 12.4155 40.0075 13.1994 39.5716 14.0465L38.5671 12.5395C40.5022 9.42302 43.9466 7.35044 47.873 7.35044C48.3733 7.35044 48.8672 7.38563 49.3491 7.44963L49.3483 7.44883Z" fill="#2B8679"/>
<path d="M51.7161 3.93879L50.7045 5.43944C50.2281 5.38664 49.7477 5.36024 49.2634 5.36024C47.484 5.36024 45.7578 5.71141 44.1451 6.39694C42.5873 7.05767 41.1771 8.01037 39.9638 9.22784C39.2111 9.98376 38.56 10.8149 38.0177 11.714L37.0371 10.2421C39.6938 6.31454 44.1801 3.73561 49.2634 3.73561C50.0995 3.73561 50.9173 3.80601 51.7161 3.93879Z" fill="#2B8679"/>
<path d="M51.7161 3.93879L50.7045 5.43944C50.2281 5.38664 49.7477 5.36024 49.2634 5.36024C47.484 5.36024 45.7578 5.71141 44.1451 6.39694C42.5873 7.05767 41.1771 8.01037 39.9638 9.22784C39.2111 9.98376 38.56 10.8149 38.0177 11.714L37.0371 10.2421C39.6938 6.31454 44.1801 3.73561 49.2634 3.73561C50.0995 3.73561 50.9173 3.80601 51.7161 3.93879Z" fill="#2B8679"/>
<path d="M51.7161 3.93879L50.7045 5.43944C50.2281 5.38664 49.7477 5.36024 49.2634 5.36024C47.484 5.36024 45.7578 5.71141 44.1451 6.39694C42.5873 7.05767 41.1771 8.01037 39.9638 9.22784C39.2111 9.98376 38.56 10.8149 38.0177 11.714L37.0371 10.2421C39.6938 6.31454 44.1801 3.73561 49.2634 3.73561C50.0995 3.73561 50.9173 3.80601 51.7161 3.93879Z" fill="#2B8679"/>
<path d="M40.3172 5.27626C40.3172 5.27626 40.3092 5.28106 40.3053 5.28506L40.2886 5.27626C40.2767 5.26746 40.2568 5.25626 40.2568 5.25626L40.2655 5.24266L40.3172 5.27626Z" fill="#2B8679"/>
<path d="M22.1262 7.22805C21.6243 7.22805 21.1328 7.26325 20.6469 7.32644L21.6847 8.86388C21.8292 8.85668 21.9785 8.85508 22.1262 8.85508C24.6202 8.85508 26.9649 9.82858 28.7292 11.5996C29.42 12.2939 29.9885 13.0778 30.4253 13.9234L31.4297 12.4163C29.4955 9.30064 26.051 7.22725 22.1262 7.22725V7.22805Z" fill="#2B8679"/>
<path d="M32.959 10.1206L31.9784 11.5924C31.4368 10.6949 30.7849 9.86218 30.0322 9.10626C28.819 7.88878 27.4088 6.93608 25.8509 6.27535C24.2383 5.59062 22.5121 5.23866 20.7327 5.23866C20.2475 5.23866 19.7671 5.26505 19.2915 5.31785L18.2823 3.8172C19.0787 3.68442 19.8973 3.61402 20.7327 3.61402C25.8176 3.61402 30.3022 6.19536 32.959 10.1206Z" fill="#2B8679"/>
<path d="M34.4811 7.83759L33.514 9.28944C33.1543 8.74549 32.7636 8.21755 32.3404 7.716V7.7136C32.022 7.33364 31.6885 6.96648 31.336 6.61291C29.7781 5.04828 27.9638 3.8212 25.9438 2.96209C23.8531 2.07578 21.6331 1.62463 19.3423 1.62463C18.5237 1.62463 17.717 1.68223 16.9182 1.79661L15.9201 0.315967C17.0301 0.107989 18.1735 0 19.3423 0C25.5857 0 31.1121 3.09408 34.4819 7.83679L34.4811 7.83759Z" fill="#2B8679"/>
<path d="M40.3593 5.30026L40.3529 5.31546L40.3045 5.28666V5.28506L40.2878 5.27626C40.2759 5.26746 40.256 5.25626 40.256 5.25626L40.2648 5.24266L40.3164 5.27626L40.3585 5.30026H40.3593Z" fill="#2B8679"/>
<path d="M54.0791 0.435955L53.081 1.9182C52.2846 1.80301 51.4755 1.74542 50.6593 1.74542C48.3685 1.74542 46.1461 2.19657 44.0562 3.08368C42.7159 3.65322 41.4629 4.38674 40.3172 5.27545L40.2655 5.24186L40.2568 5.25546C40.2568 5.25546 40.2767 5.26585 40.2886 5.27545C40.2957 5.28025 40.3021 5.28425 40.3021 5.28585C39.7304 5.73061 39.1833 6.21376 38.6632 6.7337C37.8462 7.55842 37.118 8.45352 36.4876 9.41022C36.4876 9.41022 36.224 9.80858 35.8667 10.3429C35.1306 11.45 33.9999 13.1514 33.9999 13.1514L34.015 13.1634L30.3331 18.7037C31.4908 19.6396 32.5056 20.7283 33.356 21.9545C33.7347 22.5001 34.077 23.0664 34.3811 23.6511V20.6555H34.3795C34.2389 20.3803 34.0595 19.9779 33.9269 19.4692C33.811 19.03 33.722 18.6949 33.7609 18.2981C33.8213 17.671 34.1516 17.4174 34.4843 16.7943C34.6423 16.4983 34.8162 16.0895 34.9289 15.5488C35.0409 16.0895 35.214 16.4983 35.372 16.7943C35.7055 17.4174 36.0358 17.671 36.0961 18.2981C36.1335 18.6949 36.0445 19.03 35.9302 19.4692C35.796 19.9779 35.6181 20.3803 35.4776 20.6555V23.6799C35.7849 23.0832 36.1335 22.5089 36.5178 21.9545C37.3618 20.7378 38.3694 19.6652 39.5859 18.6989L37.1204 14.9073L35.5149 12.4891L36.4812 11.0357L40.5403 17.139L41.6503 18.8492L41.8147 19.1012L41.1771 19.566C41.1771 19.566 41.1739 19.5676 41.1723 19.5676C39.8225 20.5475 38.7434 21.641 37.8644 22.9032C37.1768 23.8919 36.6265 24.9558 36.216 26.0813C36.1962 26.1357 36.1771 26.1925 36.1573 26.2485C36.0906 26.4357 36.0302 26.622 35.9747 26.8124L35.8524 27.2396C35.8103 27.3884 35.7706 27.5387 35.7365 27.6891L35.7142 27.7819L35.1457 30.1777C35.1457 30.1777 35.1243 30.2625 35.0933 30.396V18.9044C35.2561 18.8372 35.3704 18.6765 35.3704 18.4901C35.3704 18.2437 35.1727 18.0437 34.9273 18.0437C34.682 18.0437 34.4859 18.2445 34.4859 18.4901C34.4859 18.6781 34.6002 18.8396 34.7646 18.9044V30.3441C34.736 30.2273 34.7193 30.1545 34.7193 30.1545L34.1571 27.7819L34.1349 27.6891C34.1 27.5387 34.0611 27.3884 34.019 27.2396L33.8967 26.8124C33.8427 26.6228 33.7808 26.4357 33.7141 26.2485C33.6942 26.1941 33.6752 26.1389 33.6553 26.0829C33.2448 24.959 32.6946 23.8927 32.0069 22.9032C31.1097 21.6122 30.0108 20.4867 28.7364 19.5628L28.6594 19.5084L28.0908 19.0948L32.6477 12.2411L32.666 12.2515C33.6172 10.8189 34.5677 9.38943 35.5205 7.95757C38.8871 3.21487 44.4135 0.121587 50.6593 0.121587C51.8265 0.121587 52.9722 0.229576 54.0791 0.435955Z" fill="#2B8679"/>
<path d="M1.2085 42.3468C0.859129 42.3468 0.569312 42.2404 0.341429 42.0284C0.112751 41.8165 0 41.5517 0 41.2333C0 40.915 0.112751 40.651 0.341429 40.439C0.568518 40.227 0.858335 40.1206 1.2085 40.1206C1.55866 40.1206 1.86674 40.2262 2.09383 40.439C2.32251 40.651 2.43526 40.9158 2.43526 41.2333C2.43526 41.5509 2.32251 41.8157 2.09383 42.0284C1.86674 42.2404 1.57137 42.3468 1.2085 42.3468ZM0.368425 43.7763L1.2085 43.9354L2.05016 43.7763V53.7704H0.368425V43.7763Z" fill="#2B8679"/>
<path d="M4.18846 43.8291H5.87178L6.44982 47.2375V53.7704H4.74983V46.9727L4.18846 43.8299V43.8291ZM10.5152 43.6003C11.4394 43.6003 12.2223 43.7859 12.8639 44.1562C13.5063 44.5274 13.9978 45.0625 14.3368 45.7633C14.6743 46.464 14.845 47.3079 14.845 48.2974V53.7704H13.145V48.5974C13.145 47.4199 12.879 46.5344 12.347 45.94C11.815 45.3457 11.0353 45.0481 10.007 45.0481C9.2948 45.0481 8.66831 45.2065 8.13156 45.5249C7.5948 45.8424 7.17953 46.2904 6.88733 46.8671C6.59513 47.4439 6.44982 48.1206 6.44982 48.8973L5.76538 48.439C5.85987 47.4383 6.11633 46.5792 6.53796 45.8608C6.958 45.1433 7.50984 44.5866 8.1927 44.1922C8.87714 43.7979 9.65131 43.6011 10.5152 43.6011V43.6003Z" fill="#2B8679"/>
<path d="M27.2889 48.7909C27.0427 49.8268 26.6576 50.7395 26.132 51.5275C25.6056 52.3162 24.9664 52.9257 24.212 53.3545C23.4585 53.784 22.6192 53.9992 21.6966 53.9992C20.7739 53.9992 19.8846 53.7808 19.1375 53.3457C18.3887 52.9105 17.8027 52.2986 17.3763 51.5099C16.9499 50.7211 16.7371 49.814 16.7371 48.7909C16.7371 47.7678 16.9499 46.8487 17.3763 46.072C17.8027 45.2953 18.3895 44.689 19.1375 44.253C19.8846 43.8179 20.7382 43.6003 21.6966 43.6003C22.655 43.6003 23.4577 43.8179 24.212 44.253C24.9656 44.689 25.6079 45.2953 26.1399 46.072C26.6719 46.8495 27.0546 47.7551 27.2881 48.7909H27.2889ZM18.4554 48.7909C18.4554 49.5325 18.6071 50.1892 18.9112 50.7595C19.2145 51.3307 19.6345 51.7746 20.1729 52.093C20.7096 52.4114 21.3171 52.5697 21.9951 52.5697C22.6732 52.5697 23.3394 52.4114 23.923 52.093C24.5082 51.7746 25.0251 51.3307 25.4745 50.7595C25.924 50.1892 26.2964 49.5325 26.587 48.7909C26.2956 48.0494 25.924 47.3935 25.4745 46.8223C25.0251 46.252 24.5082 45.8072 23.923 45.4889C23.3394 45.1705 22.6963 45.0121 21.9951 45.0121C21.294 45.0121 20.7096 45.1705 20.1729 45.4889C19.6345 45.8072 19.2145 46.2512 18.9112 46.8223C18.6071 47.3935 18.4554 48.0494 18.4554 48.7909ZM26.6918 53.7704L26.3249 49.9748L26.7982 48.8093L26.3599 47.5383L27.0602 40.175H28.7777L27.9376 48.7213L28.4092 53.7704H26.6918Z" fill="#2B8679"/>
<path d="M36.085 54C34.9162 54 33.8919 53.7792 33.009 53.3377C32.1276 52.8961 31.4376 52.2842 30.9422 51.5019C30.4451 50.7187 30.1966 49.8148 30.1966 48.7909C30.1966 47.767 30.4451 46.8487 30.9422 46.072C31.4376 45.2953 32.1276 44.689 33.009 44.253C33.8919 43.8179 34.9162 43.6003 36.085 43.6003C37.2538 43.6003 38.2781 43.8179 39.1611 44.253C40.044 44.689 40.7324 45.2953 41.2295 46.072C41.7249 46.8495 41.9743 47.7551 41.9743 48.7909C41.9743 49.8268 41.7257 50.7187 41.2295 51.5019C40.7324 52.285 40.044 52.8969 39.1611 53.3377C38.2781 53.7792 37.2538 54 36.085 54ZM36.085 52.6049C36.9386 52.6049 37.6747 52.449 38.294 52.137C38.9117 51.825 39.3921 51.3835 39.7312 50.8123C40.0686 50.242 40.2393 49.5733 40.2393 48.8085C40.2393 48.0438 40.0694 47.3583 39.7312 46.7871C39.3921 46.2168 38.9125 45.7753 38.294 45.4633C37.6747 45.1513 36.9378 44.9953 36.085 44.9953C35.2323 44.9953 34.5113 45.1513 33.8864 45.4633C33.2599 45.7753 32.7787 46.2168 32.4397 46.7871C32.1006 47.3583 31.9315 48.0318 31.9315 48.8085C31.9315 49.5853 32.1006 50.242 32.4397 50.8123C32.7787 51.3835 33.2599 51.825 33.8864 52.137C34.5113 52.449 35.2434 52.6049 36.085 52.6049Z" fill="#2B8679"/>
<path d="M44.4103 53.8944C44.188 53.8944 43.9903 53.8408 43.8148 53.7352C43.6393 53.6296 43.4996 53.4881 43.3948 53.3113C43.29 53.1353 43.2368 52.9353 43.2368 52.7113C43.2368 52.4874 43.29 52.2874 43.3948 52.1106C43.4996 51.9346 43.6393 51.793 43.8148 51.6874C43.9903 51.5811 44.188 51.5283 44.4103 51.5283C44.6327 51.5283 44.832 51.5811 45.0074 51.6874C45.1813 51.793 45.3227 51.9346 45.4275 52.1106C45.5323 52.2874 45.5855 52.4874 45.5855 52.7113C45.5855 52.9353 45.5323 53.1353 45.4275 53.3113C45.3227 53.4881 45.1813 53.6296 45.0074 53.7352C44.832 53.8408 44.6327 53.8944 44.4103 53.8944Z" fill="#2B8679"/>
<path d="M57.468 48.7909C57.2218 49.8268 56.8367 50.7395 56.3111 51.5275C55.7847 52.3162 55.1455 52.9257 54.3912 53.3545C53.6376 53.784 52.7984 53.9992 51.8757 53.9992C50.9531 53.9992 50.0638 53.7808 49.3166 53.3457C48.5678 52.9105 47.9818 52.2986 47.5554 51.5099C47.1291 50.7211 46.9163 49.814 46.9163 48.7909C46.9163 47.7678 47.1291 46.8487 47.5554 46.072C47.9818 45.2953 48.5686 44.689 49.3166 44.253C50.0638 43.8179 50.9173 43.6003 51.8757 43.6003C52.8341 43.6003 53.6368 43.8179 54.3912 44.253C55.1447 44.689 55.787 45.2953 56.319 46.072C56.851 46.8495 57.2337 47.7551 57.4672 48.7909H57.468ZM48.6353 48.7909C48.6353 49.5325 48.787 50.1892 49.0911 50.7595C49.3944 51.3307 49.8144 51.7746 50.3528 52.093C50.8895 52.4114 51.497 52.5697 52.175 52.5697C52.8531 52.5697 53.5193 52.4114 54.1029 52.093C54.6881 51.7746 55.205 51.3307 55.6544 50.7595C56.1039 50.1892 56.4763 49.5325 56.7669 48.7909C56.4755 48.0494 56.1039 47.3935 55.6544 46.8223C55.205 46.252 54.6881 45.8072 54.1029 45.4889C53.5193 45.1705 52.8762 45.0121 52.175 45.0121C51.4739 45.0121 50.8895 45.1705 50.3528 45.4889C49.8144 45.8072 49.3944 46.2512 49.0911 46.8223C48.787 47.3935 48.6353 48.0494 48.6353 48.7909ZM56.8367 53.7704L56.4858 50.0276L56.9241 48.7917L56.4858 47.5735L56.8367 43.8299H58.5717L58.0984 48.7917L58.5717 53.7712H56.8367V53.7704Z" fill="#2B8679"/>
<path d="M60.2717 53.7704V52.4986L68.3873 44.6066L69.3163 45.1713H60.3423V43.8291H69.9643V45.1009L61.8502 52.9753L61.0442 52.4106H70V53.7696H60.2717V53.7704Z" fill="#2B8679"/>
<defs>
<linearGradient id="paint0_linear_866_6112" x1="69.9968" y1="27.0026" x2="-0.00322521" y2="27.0026" gradientUnits="userSpaceOnUse">
<stop/>
<stop offset="0.2" stop-color="#144039"/>
<stop offset="0.45" stop-color="#184E46"/>
<stop offset="0.66" stop-color="#2B8679"/>
</linearGradient>
<linearGradient id="paint1_linear_866_6112" x1="69.7681" y1="17.1188" x2="-0.4924" y2="18.0762" gradientUnits="userSpaceOnUse">
<stop/>
<stop offset="0.2" stop-color="#144039"/>
<stop offset="0.45" stop-color="#184E46"/>
<stop offset="0.66" stop-color="#2B8679"/>
</linearGradient>
<linearGradient id="paint2_linear_866_6112" x1="0" y1="26.9969" x2="70" y2="26.9969" gradientUnits="userSpaceOnUse">
<stop/>
<stop offset="0.2" stop-color="#144039"/>
<stop offset="0.45" stop-color="#184E46"/>
<stop offset="0.66" stop-color="#2B8679"/>
</linearGradient>
<linearGradient id="paint3_linear_866_6112" x1="0" y1="26.9952" x2="70" y2="26.9952" gradientUnits="userSpaceOnUse">
<stop/>
<stop offset="0.2" stop-color="#144039"/>
<stop offset="0.45" stop-color="#184E46"/>
<stop offset="0.66" stop-color="#2B8679"/>
</linearGradient>
<linearGradient id="paint4_linear_866_6112" x1="0.00322685" y1="27.0026" x2="70.0032" y2="27.0026" gradientUnits="userSpaceOnUse">
<stop/>
<stop offset="0.2" stop-color="#144039"/>
<stop offset="0.45" stop-color="#184E46"/>
<stop offset="0.66" stop-color="#2B8679"/>
</linearGradient>
<linearGradient id="paint5_linear_866_6112" x1="0.230475" y1="17.2711" x2="70.4888" y2="18.2285" gradientUnits="userSpaceOnUse">
<stop/>
<stop offset="0.2" stop-color="#144039"/>
<stop offset="0.45" stop-color="#184E46"/>
<stop offset="0.66" stop-color="#2B8679"/>
</linearGradient>
<linearGradient id="paint6_linear_866_6112" x1="70" y1="26.9969" x2="0" y2="26.9969" gradientUnits="userSpaceOnUse">
<stop/>
<stop offset="0.2" stop-color="#144039"/>
<stop offset="0.45" stop-color="#184E46"/>
<stop offset="0.66" stop-color="#2B8679"/>
</linearGradient>
<linearGradient id="paint7_linear_866_6112" x1="70" y1="26.9952" x2="0" y2="26.9952" gradientUnits="userSpaceOnUse">
<stop/>
<stop offset="0.2" stop-color="#144039"/>
<stop offset="0.45" stop-color="#184E46"/>
<stop offset="0.66" stop-color="#2B8679"/>
</linearGradient>
<linearGradient id="paint8_linear_866_6112" x1="-0.000986207" y1="27" x2="70" y2="27" gradientUnits="userSpaceOnUse">
<stop stop-color="white"/>
<stop offset="1"/>
</linearGradient>
</defs>
</svg>
